<svg width="33" height="25" viewBox="0 0 33 25" fill="none" xmlns="http://www.w3.org/2000/svg">
<path d="M24.8298 23.997C23.2144 25.3162 21.4508 25.1079 19.753 24.483C17.9563 23.8442 16.308 23.8164 14.4125 24.483C12.0389 25.344 10.7862 25.0941 9.36866 23.997C1.32493 17.0117 2.51171 6.3742 11.6433 5.98536C13.8685 6.08257 15.418 7.013 16.7201 7.09633C18.6651 6.76303 20.5277 5.80482 22.6046 5.92981C25.0935 6.09645 26.9726 6.92968 28.2088 8.42949C23.0661 11.0264 24.2858 16.734 29 18.331C28.0605 20.4141 26.8407 22.4833 24.8133 24.0109L24.8298 23.997ZM16.5553 5.90203C16.308 2.8052 19.2915 0.249968 22.72 0C23.198 3.58288 18.8629 6.24921 16.5553 5.90203Z" fill="black"/>
</svg>
