<svg width="75" height="75" viewBox="0 0 75 75" fill="none" xmlns="http://www.w3.org/2000/svg">
<circle cx="37.5" cy="37.5" r="37.5" fill="#A6A6A6"/>
<path d="M36.7061 57.4105C38.9579 57.4105 41.132 57.0482 43.1611 56.3856C42.1591 55.0826 41.313 53.6667 40.6402 52.1669C39.3565 53.9812 37.964 54.8224 36.7061 54.8224C35.0057 54.8224 33.0645 53.2954 31.4728 49.8842C30.8669 48.5576 30.3835 47.1784 30.0286 45.7638H39.3047C39.3358 44.8787 39.4574 44.0116 39.6593 43.1757H29.4747C29.115 41.0377 28.9367 38.8732 28.9415 36.7053C28.9415 34.4199 29.1305 32.2407 29.4747 30.2349H43.9376C44.2482 32.0569 44.4345 34.0214 44.4656 36.0789C45.2472 35.5458 46.0987 35.1084 47.0176 34.7849C46.9507 33.2608 46.7977 31.7417 46.5594 30.2349H53.633C54.1765 31.6558 54.5466 33.1621 54.7175 34.7279C55.6855 35.0566 56.5836 35.5095 57.4014 36.066C57.2758 32 55.9553 28.0611 53.6047 24.7411C51.2541 21.421 47.9775 18.8669 44.1841 17.3977C40.3908 15.9284 36.2486 15.6091 32.2749 16.4796C28.3011 17.3501 24.6718 19.3719 21.8401 22.2924C19.0084 25.213 17.0997 28.9029 16.3524 32.9016C15.6051 36.9003 16.0522 41.0305 17.638 44.7766C19.2238 48.5227 21.878 51.7187 25.2691 53.9656C28.6603 56.2125 32.6382 57.4106 36.7061 57.4105ZM36.7061 18.5882C38.4066 18.5882 40.3477 20.1152 41.9395 23.5264C42.5011 24.7325 42.9903 26.1197 43.3863 27.6467H30.026C30.422 26.1197 30.9111 24.7325 31.4754 23.5264C33.0619 20.1152 35.0031 18.5882 36.7061 18.5882ZM29.1279 22.4316C28.3636 24.1056 27.7713 25.853 27.3601 27.6467H21.0113C23.1963 23.8703 26.6671 21.0059 30.7895 19.5768C30.1657 20.4309 29.6093 21.3989 29.1279 22.4316ZM26.8503 30.2349C26.5153 32.3753 26.3491 34.5388 26.3533 36.7053C26.3533 38.957 26.5267 41.1362 26.8528 43.1757H19.7793C18.9899 41.1099 18.5864 38.9167 18.5887 36.7053C18.5887 34.4277 19.0106 32.2433 19.7793 30.2349H26.8503ZM27.3601 45.7638C27.8157 47.6868 28.4135 49.4442 29.1279 50.979C29.6093 52.0116 30.1657 52.9796 30.7895 53.8337C26.6671 52.4047 23.1963 49.5403 21.0113 45.7638H27.3601ZM42.6228 19.5768C46.7453 21.0057 50.2161 23.8701 52.401 27.6467H46.0496C45.6383 25.853 45.0461 24.1057 44.2818 22.4316C43.821 21.4288 43.2645 20.4728 42.6202 19.5768H42.6228ZM60 46.2349C60 40.9732 56.2083 36.7079 50.9439 36.7079C45.682 36.7079 41.8826 40.9732 41.8826 46.2349C41.8826 50.1792 44.4242 55.3711 50.3098 59.7865C50.685 60.0712 51.2027 60.0712 51.578 59.7865C57.4687 55.3711 60 50.1792 60 46.2349ZM54.8236 45.7638C54.8236 46.7935 54.4146 47.7809 53.6865 48.509C52.9584 49.2371 51.9709 49.6461 50.9413 49.6461C49.9116 49.6461 48.9241 49.2371 48.1961 48.509C47.468 47.7809 47.059 46.7935 47.059 45.7638C47.059 44.7342 47.468 43.7467 48.1961 43.0187C48.9241 42.2906 49.9116 41.8816 50.9413 41.8816C51.9709 41.8816 52.9584 42.2906 53.6865 43.0187C54.4146 43.7467 54.8236 44.7342 54.8236 45.7638Z" fill="black"/>
</svg>
