<svg width="25" height="25" viewBox="0 0 25 25" fill="none" xmlns="http://www.w3.org/2000/svg">
<g clip-path="url(#clip0_44_18)">
<path d="M25 12.6953C25 5.7918 19.4035 0.195312 12.5 0.195312C5.59648 0.195312 0 5.7917 0 12.6953C0 18.9344 4.57109 24.1058 10.5469 25.0435V16.3086H7.37305V12.6953H10.5469V9.94141C10.5469 6.80859 12.4131 5.07813 15.2683 5.07813C16.6359 5.07813 18.0664 5.32227 18.0664 5.32227V8.39844H16.4902C14.9373 8.39844 14.4531 9.36201 14.4531 10.3506V12.6953H17.9199L17.3657 16.3086H14.4531V25.0435C20.4289 24.1058 25 18.9345 25 12.6953Z" fill="#1877F2"/>
<path d="M17.3657 16.1133L17.9199 12.5H14.4531V10.1553C14.4531 9.1666 14.9374 8.20312 16.4902 8.20312H18.0664V5.12695C18.0664 5.12695 16.6359 4.88281 15.2683 4.88281C12.4131 4.88281 10.5469 6.61328 10.5469 9.74609V12.5H7.37305V16.1133H10.5469V24.8481C11.193 24.9494 11.846 25.0002 12.5 25C13.154 25.0002 13.807 24.9494 14.4531 24.8481V16.1133H17.3657Z" fill="white"/>
</g>
<defs>
<clipPath id="clip0_44_18">
<rect width="25" height="25" fill="white"/>
</clipPath>
</defs>
</svg>
