<svg width="75" height="75" viewBox="0 0 75 75" fill="none" xmlns="http://www.w3.org/2000/svg">
<circle cx="37.5" cy="37.5" r="37.5" fill="#A6A6A6"/>
<path d="M37.5 17C37.8791 17.0002 38.2506 17.1038 38.573 17.2991C38.8953 17.4944 39.1558 17.7738 39.3253 18.106L44.5928 28.422L56.169 30.07C56.5461 30.1236 56.9004 30.2796 57.1917 30.5202C57.483 30.7608 57.6998 31.0765 57.8175 31.4315C57.9352 31.7865 57.9491 32.1667 57.8576 32.5291C57.7662 32.8915 57.5731 33.2216 57.3001 33.482L48.8741 41.53L50.7688 52.878C50.8297 53.2454 50.7847 53.6221 50.639 53.9658C50.4932 54.3094 50.2525 54.6065 49.9438 54.8234C49.6351 55.0404 49.2707 55.1687 48.8917 55.1939C48.5127 55.2191 48.134 55.1401 47.7982 54.966L37.5 49.614L27.2019 54.966C26.8661 55.1401 26.4874 55.2191 26.1083 55.1939C25.7293 55.1687 25.3649 55.0404 25.0563 54.8234C24.7476 54.6065 24.5068 54.3094 24.3611 53.9658C24.2153 53.6221 24.1704 53.2454 24.2312 52.878L26.1259 41.53L17.6999 33.482C17.427 33.2216 17.2338 32.8915 17.1424 32.5291C17.051 32.1667 17.0649 31.7865 17.1826 31.4315C17.3003 31.0765 17.517 30.7608 17.8084 30.5202C18.0997 30.2796 18.4539 30.1236 18.831 30.07L30.4073 28.422L35.6748 18.106C35.8442 17.7738 36.1047 17.4944 36.4271 17.2991C36.7494 17.1038 37.121 17.0002 37.5 17ZM37.5 23.472L33.5841 31.144C33.4371 31.4325 33.2211 31.682 32.9545 31.8711C32.6879 32.0602 32.3786 32.1833 32.0529 32.23L23.5105 33.446L29.7376 39.392C29.9729 39.6166 30.1495 39.8935 30.2522 40.1992C30.3549 40.5049 30.3808 40.8304 30.3276 41.148L28.925 49.542L36.5425 45.582C36.8374 45.4286 37.1661 45.3484 37.5 45.3484C37.8339 45.3484 38.1627 45.4286 38.4576 45.582L46.075 49.542L44.6724 41.148C44.6196 40.8307 44.6457 40.5056 44.7484 40.2003C44.8511 39.895 45.0274 39.6184 45.2624 39.394L51.4895 33.446L42.9492 32.23C42.6235 32.1833 42.3142 32.0602 42.0476 31.8711C41.7809 31.682 41.5649 31.4325 41.418 31.144L37.5 23.472Z" fill="black"/>
</svg>
