<svg width="50" height="50" viewBox="0 0 50 50" fill="none" xmlns="http://www.w3.org/2000/svg">
<path d="M25 4.16669C31.8958 4.16669 37.5 9.70835 37.5 16.5625C37.5 25.8542 25 39.5834 25 39.5834C25 39.5834 12.5 25.8542 12.5 16.5625C12.5 9.70835 18.1041 4.16669 25 4.16669ZM25 12.5C23.8949 12.5 22.8351 12.939 22.0537 13.7204C21.2723 14.5018 20.8333 15.5616 20.8333 16.6667C20.8333 17.7718 21.2723 18.8316 22.0537 19.613C22.8351 20.3944 23.8949 20.8334 25 20.8334C26.105 20.8334 27.1649 20.3944 27.9463 19.613C28.7277 18.8316 29.1666 17.7718 29.1666 16.6667C29.1666 15.5616 28.7277 14.5018 27.9463 13.7204C27.1649 12.939 26.105 12.5 25 12.5ZM41.6666 39.5834C41.6666 44.1875 34.2083 47.9167 25 47.9167C15.7916 47.9167 8.33331 44.1875 8.33331 39.5834C8.33331 36.8959 10.875 34.5 14.8125 32.9792L16.1458 34.875C13.8958 35.8125 12.5 37.1042 12.5 38.5417C12.5 41.4167 18.1041 43.75 25 43.75C31.8958 43.75 37.5 41.4167 37.5 38.5417C37.5 37.1042 36.1041 35.8125 33.8541 34.875L35.1875 32.9792C39.125 34.5 41.6666 36.8959 41.6666 39.5834Z" fill="black"/>
</svg>
