<svg width="75" height="75" viewBox="0 0 75 75" fill="none" xmlns="http://www.w3.org/2000/svg">
<path d="M36.4375 15.8125V11.125C36.4375 10.7106 36.6021 10.3132 36.8951 10.0201C37.1882 9.72712 37.5856 9.5625 38 9.5625C38.4144 9.5625 38.8118 9.72712 39.1049 10.0201C39.3979 10.3132 39.5625 10.7106 39.5625 11.125V15.8125C39.5625 16.2269 39.3979 16.6243 39.1049 16.9174C38.8118 17.2104 38.4144 17.375 38 17.375C37.5856 17.375 37.1882 17.2104 36.8951 16.9174C36.6021 16.6243 36.4375 16.2269 36.4375 15.8125ZM50.5 33C50.5 35.4723 49.7669 37.889 48.3934 39.9446C47.0199 42.0002 45.0676 43.6024 42.7835 44.5485C40.4995 45.4946 37.9861 45.7421 35.5614 45.2598C33.1366 44.7775 30.9093 43.587 29.1612 41.8388C27.413 40.0907 26.2225 37.8634 25.7402 35.4386C25.2579 33.0139 25.5054 30.5005 26.4515 28.2165C27.3976 25.9324 28.9998 23.9801 31.0554 22.6066C33.111 21.2331 35.5277 20.5 38 20.5C41.3141 20.5036 44.4914 21.8217 46.8348 24.1652C49.1783 26.5086 50.4964 29.6859 50.5 33ZM47.375 33C47.375 31.1458 46.8252 29.3332 45.795 27.7915C44.7649 26.2498 43.3007 25.0482 41.5877 24.3386C39.8746 23.6291 37.9896 23.4434 36.171 23.8051C34.3525 24.1669 32.682 25.0598 31.3709 26.3709C30.0598 27.682 29.1669 29.3525 28.8051 31.171C28.4434 32.9896 28.6291 34.8746 29.3386 36.5877C30.0482 38.3007 31.2498 39.7649 32.7915 40.795C34.3332 41.8252 36.1458 42.375 38 42.375C40.4856 42.3724 42.8687 41.3839 44.6263 39.6263C46.3839 37.8687 47.3724 35.4856 47.375 33ZM24.3945 21.6055C24.6877 21.8987 25.0854 22.0634 25.5 22.0634C25.9146 22.0634 26.3123 21.8987 26.6055 21.6055C26.8987 21.3123 27.0634 20.9146 27.0634 20.5C27.0634 20.0854 26.8987 19.6877 26.6055 19.3945L23.4805 16.2695C23.1873 15.9763 22.7896 15.8116 22.375 15.8116C21.9604 15.8116 21.5627 15.9763 21.2695 16.2695C20.9763 16.5627 20.8116 16.9604 20.8116 17.375C20.8116 17.7896 20.9763 18.1873 21.2695 18.4805L24.3945 21.6055ZM24.3945 44.3945L21.2695 47.5195C20.9763 47.8127 20.8116 48.2104 20.8116 48.625C20.8116 49.0396 20.9763 49.4373 21.2695 49.7305C21.5627 50.0237 21.9604 50.1884 22.375 50.1884C22.7896 50.1884 23.1873 50.0237 23.4805 49.7305L26.6055 46.6055C26.7506 46.4603 26.8658 46.288 26.9444 46.0983C27.0229 45.9086 27.0634 45.7053 27.0634 45.5C27.0634 45.2947 27.0229 45.0914 26.9444 44.9017C26.8658 44.712 26.7506 44.5397 26.6055 44.3945C26.4603 44.2494 26.288 44.1342 26.0983 44.0556C25.9086 43.9771 25.7053 43.9366 25.5 43.9366C25.2947 43.9366 25.0914 43.9771 24.9017 44.0556C24.712 44.1342 24.5397 44.2494 24.3945 44.3945ZM50.5 22.0625C50.7053 22.0627 50.9085 22.0224 51.0982 21.944C51.2879 21.8655 51.4603 21.7505 51.6055 21.6055L54.7305 18.4805C55.0237 18.1873 55.1884 17.7896 55.1884 17.375C55.1884 16.9604 55.0237 16.5627 54.7305 16.2695C54.4373 15.9763 54.0396 15.8116 53.625 15.8116C53.2104 15.8116 52.8127 15.9763 52.5195 16.2695L49.3945 19.3945C49.1758 19.6131 49.0268 19.8916 48.9664 20.1948C48.906 20.4981 48.9369 20.8124 49.0553 21.0981C49.1736 21.3838 49.3741 21.6279 49.6313 21.7996C49.8885 21.9712 50.1908 22.0627 50.5 22.0625ZM51.6055 44.3945C51.3123 44.1013 50.9146 43.9366 50.5 43.9366C50.0854 43.9366 49.6877 44.1013 49.3945 44.3945C49.1013 44.6877 48.9366 45.0854 48.9366 45.5C48.9366 45.9146 49.1013 46.3123 49.3945 46.6055L52.5195 49.7305C52.6647 49.8756 52.837 49.9908 53.0267 50.0694C53.2164 50.1479 53.4197 50.1884 53.625 50.1884C53.8303 50.1884 54.0336 50.1479 54.2233 50.0694C54.413 49.9908 54.5853 49.8756 54.7305 49.7305C54.8756 49.5853 54.9908 49.413 55.0694 49.2233C55.1479 49.0336 55.1884 48.8303 55.1884 48.625C55.1884 48.4197 55.1479 48.2164 55.0694 48.0267C54.9908 47.837 54.8756 47.6647 54.7305 47.5195L51.6055 44.3945ZM22.375 33C22.375 32.5856 22.2104 32.1882 21.9174 31.8951C21.6243 31.6021 21.2269 31.4375 20.8125 31.4375H16.125C15.7106 31.4375 15.3132 31.6021 15.0201 31.8951C14.7271 32.1882 14.5625 32.5856 14.5625 33C14.5625 33.4144 14.7271 33.8118 15.0201 34.1049C15.3132 34.3979 15.7106 34.5625 16.125 34.5625H20.8125C21.2269 34.5625 21.6243 34.3979 21.9174 34.1049C22.2104 33.8118 22.375 33.4144 22.375 33ZM38 48.625C37.5856 48.625 37.1882 48.7896 36.8951 49.0826C36.6021 49.3757 36.4375 49.7731 36.4375 50.1875V54.875C36.4375 55.2894 36.6021 55.6868 36.8951 55.9799C37.1882 56.2729 37.5856 56.4375 38 56.4375C38.4144 56.4375 38.8118 56.2729 39.1049 55.9799C39.3979 55.6868 39.5625 55.2894 39.5625 54.875V50.1875C39.5625 49.7731 39.3979 49.3757 39.1049 49.0826C38.8118 48.7896 38.4144 48.625 38 48.625ZM59.875 31.4375H55.1875C54.7731 31.4375 54.3757 31.6021 54.0826 31.8951C53.7896 32.1882 53.625 32.5856 53.625 33C53.625 33.4144 53.7896 33.8118 54.0826 34.1049C54.3757 34.3979 54.7731 34.5625 55.1875 34.5625H59.875C60.2894 34.5625 60.6868 34.3979 60.9799 34.1049C61.2729 33.8118 61.4375 33.4144 61.4375 33C61.4375 32.5856 61.2729 32.1882 60.9799 31.8951C60.6868 31.6021 60.2894 31.4375 59.875 31.4375Z" fill="black"/>
<g opacity="0.2" filter="url(#filter0_d_17_140)">
<path d="M4 21C4 9.40202 13.402 0 25 0H50C61.598 0 71 9.40202 71 21V46C71 57.598 61.598 67 50 67H25C13.402 67 4 57.598 4 46V21Z" fill="black"/>
<path d="M25 2H50C60.4934 2 69 10.5066 69 21V46C69 56.4934 60.4934 65 50 65H25C14.5066 65 6 56.4934 6 46V21C6 10.5066 14.5066 2 25 2Z" stroke="black" stroke-width="4"/>
</g>
<defs>
<filter id="filter0_d_17_140" x="0" y="0" width="75" height="75" filterUnits="userSpaceOnUse" color-interpolation-filters="sRGB">
<feFlood flood-opacity="0" result="BackgroundImageFix"/>
<feColorMatrix in="SourceAlpha" type="matrix" values="0 0 0 0 0 0 0 0 0 0 0 0 0 0 0 0 0 0 127 0" result="hardAlpha"/>
<feOffset dy="4"/>
<feGaussianBlur stdDeviation="2"/>
<feComposite in2="hardAlpha" operator="out"/>
<feColorMatrix type="matrix" values="0 0 0 0 0 0 0 0 0 0 0 0 0 0 0 0 0 0 0.25 0"/>
<feBlend mode="normal" in2="BackgroundImageFix" result="effect1_dropShadow_17_140"/>
<feBlend mode="normal" in="SourceGraphic" in2="effect1_dropShadow_17_140" result="shape"/>
</filter>
</defs>
</svg>
